<?xml version="1.0" encoding="UTF-8"?>
<!DOCTYPE svg PUBLIC "-//W3C//DTD SVG 1.1//EN" "http://www.w3.org/Graphics/SVG/1.1/DTD/svg11.dtd">
<!-- Creator: CorelDRAW 2021 (64 Bit) -->
<svg xmlns="http://www.w3.org/2000/svg" xml:space="preserve" width="120.353mm" height="29.342mm" version="1.1" style="shape-rendering:geometricPrecision; text-rendering:geometricPrecision; image-rendering:optimizeQuality; fill-rule:evenodd; clip-rule:evenodd"
viewBox="0 0 12035.3 2934.2"
 xmlns:xlink="http://www.w3.org/1999/xlink"
 xmlns:xodm="http://www.corel.com/coreldraw/odm/2003">
 <defs>
  <style type="text/css">
   <![CDATA[
    .fil0 {fill:#FEFEFE}
    .fil1 {fill:#FEFEFE;fill-rule:nonzero}
   ]]>
  </style>
 </defs>
 <g id="Camada_x0020_1">
  <metadata id="CorelCorpID_0Corel-Layer"/>
  <path class="fil0" d="M1464.96 110.72c810.25,0 1467.09,656.84 1467.09,1467.08 0,455.91 -207.96,863.25 -534.2,1132.33 12.35,-82.19 -33.47,-160.33 -124.87,-235.33 251.71,-119.23 173.68,-441.84 -62.33,-486.92 128.07,-598.87 -1240.04,-426.61 -883.63,-1222.79 214.85,-291.59 609.59,-21.73 445.44,271.75 51.92,-86.27 76.25,-186.15 76.66,-297.81 89.59,201.41 -7.97,401.19 -247.07,471.78 359.2,-18.92 554.01,-164.13 489.31,-508.7 -155.48,-599.08 -976.63,-661.69 -1191.4,-87.98 -147.31,550.55 288.84,921.82 437.41,1287.45 161.55,291.61 177.21,439.49 61.57,577.04 241.85,-278.19 222.46,-699.94 -131.33,-1004.59 486.67,213.42 537.69,894.15 14.8,1112.15 -14.26,-189.57 -6.63,-502.14 -37.79,-578.81 -118.57,-292.52 -323.04,-442.98 -675.27,-349.05 -265.05,110.83 -372.86,320.85 -298.53,586.65 87.1,189.01 248.41,277.83 492.16,155.81 -166.47,-61.84 -272.49,-134.91 -270.99,-227.99 28.62,-254.82 488.66,-301.87 432.27,71.56 -25.39,196.37 -92.32,477.25 -214.64,591.33 -426.44,-256.63 -711.74,-723.92 -711.74,-1257.88 0,-810.24 656.84,-1467.08 1467.08,-1467.08zm137.09 1100.09c22.7,-15.36 43.28,-30.95 61.87,-46.74 -19.03,16.36 -39.64,31.95 -61.87,46.74zm430.9 526.97c34.97,-15.43 83.84,9.54 109.14,55.73 25.3,46.21 17.46,96.15 -17.51,111.57 -34.96,15.44 -83.82,-9.52 -109.13,-55.72 -25.3,-46.22 -17.47,-96.15 17.5,-111.58zm223.88 378.23c42.53,7.19 73.1,61.08 68.27,120.37 -4.87,59.29 -43.26,101.48 -85.83,94.31 -42.53,-7.14 -73.1,-61.04 -68.26,-120.33 4.85,-59.31 43.26,-101.52 85.82,-94.35zm-26.04 472.72c40.18,15.71 59.12,74.71 42.3,131.77 -16.87,57.04 -63.08,90.52 -103.28,74.81 -40.17,-15.69 -59.1,-74.68 -42.28,-131.72 16.86,-57.09 63.08,-90.55 103.26,-74.86zm-83.85 -597.93c-113.5,36.95 -257.9,-104.46 -244.47,-220.6 26.6,129.67 141.09,222.96 244.47,220.6zm11.92 476.09c-117.48,-34.94 -174.75,-276.01 -106.19,-388.48 -40.13,152.53 14.51,324 106.19,388.48zm-132.36 295.21c-65.73,-100.93 20.97,-272.31 129.75,-285.87 -109.62,55.21 -161.31,186.81 -129.75,285.87zm-744.09 -175.92c25.1,-19.37 47.81,-38.3 68.04,-57.1 -21.16,20.01 -43.82,39.11 -68.04,57.1z"/>
  <path class="fil1" d="M4911.76 2785.11c-214.63,0 -405.65,-48.83 -573.06,-145.95 -167.41,-97.11 -298.87,-233.4 -394.38,-408.86 -95.51,-175.46 -143.26,-380.97 -143.26,-617.06 0,-236.09 47.75,-442.13 143.26,-617.59 95.51,-175.46 226.97,-311.75 394.38,-408.87 167.41,-97.11 358.43,-145.41 573.06,-145.41 214.63,0 405.65,48.3 573.06,145.41 167.41,97.12 298.87,233.41 394.38,408.87 95.5,175.46 143.26,381.5 143.26,617.59 0,236.09 -47.76,441.6 -143.26,617.06 -95.51,175.46 -226.97,311.75 -394.38,408.86 -167.41,97.12 -358.43,145.95 -573.06,145.95zm0 -399.21c150.24,0 275.8,-33.26 376.67,-99.8 100.88,-66.53 176.53,-158.29 226.97,-274.72 50.44,-116.44 75.66,-248.97 75.66,-398.14 0,-149.16 -25.22,-282.23 -75.66,-398.67 -50.44,-116.43 -126.09,-207.65 -226.97,-274.19 -100.87,-66.53 -226.43,-99.8 -376.67,-99.8 -150.24,0 -275.8,33.27 -376.67,99.8 -100.88,66.54 -176.53,157.76 -226.97,274.19 -50.44,116.44 -75.66,249.51 -75.66,398.67 0,149.17 25.22,281.7 75.66,398.14 50.44,116.43 126.09,208.19 226.97,274.72 100.87,66.54 226.43,99.8 376.67,99.8zm2140.91 386.33c-184.58,0 -339.11,-38.09 -464.13,-113.75 -125.02,-75.66 -219.46,-176.53 -283.31,-302.62 -63.85,-126.1 -96.05,-265.07 -96.05,-417.46 0,-153.45 31.66,-294.04 94.98,-421.2 63.31,-127.17 158.28,-228.58 284.92,-304.77 126.63,-76.2 285.45,-114.29 476.47,-114.29 90.14,0 171.7,9.65 244.68,29.51 72.97,19.85 135.21,44.53 186.72,73.51l-32.19 321.94c-49.37,-25.76 -104.63,-47.22 -166.34,-64.39 -61.7,-17.17 -126.63,-25.75 -194.24,-25.75 -154.53,0 -274.18,46.68 -358.96,140.04 -84.78,93.36 -127.17,215.16 -127.17,365.4 0,142.73 43.46,262.39 130.39,359.51 86.92,97.12 204.43,145.94 352.52,145.94 63.32,0 126.1,-9.65 187.8,-28.43 61.71,-18.78 121.27,-44.54 179.22,-77.81l35.41 338.04c-55.8,28.98 -122.87,52.05 -201.75,69.76 -78.88,17.7 -162.04,26.82 -248.97,26.82zm1242.7 0c-100.87,0 -182.97,-20.92 -246.28,-62.24 -63.32,-41.31 -110,-93.9 -140.05,-158.29 -30.05,-64.38 -45.07,-131.46 -45.07,-201.21l0 -891.78 -228.58 0 35.41 -328.38 193.17 0 0 -354.14 399.21 -41.85 0 395.99 354.13 0 0 328.38 -354.13 0 0 727.59c0,81.56 4.83,140.04 14.49,175.99 9.65,35.95 31.65,58.49 65.99,67.61 34.34,9.12 89.07,13.95 164.19,13.95l109.46 0 -35.41 328.38 -286.53 0zm579.5 -32.19l0 -2414.57 399.21 0 0 1039.88 -90.15 -70.83c67.61,-47.22 141.12,-90.68 220.53,-130.39 79.41,-39.7 174.39,-59.56 284.92,-59.56 141.65,0 257.02,31.13 346.09,93.9 89.07,62.78 154.53,149.71 196.38,260.78 41.85,111.07 62.78,239.84 62.78,385.79l0 895 -399.21 0 0 -866.02c0,-150.24 -24.14,-261.31 -72.43,-333.21 -48.3,-71.9 -127.17,-107.85 -236.63,-107.85 -93.36,0 -169.56,21.46 -229.12,64.92 -59.56,43.46 -112.14,102.49 -157.21,176.53l74.05 -215.7 0 1281.33 -399.21 0zm2124.81 32.19c-85.85,0 -164.19,-19.31 -235.01,-57.41 -70.83,-38.1 -127.17,-92.83 -169.02,-164.73 -41.86,-71.9 -62.78,-158.82 -62.78,-260.77 0,-91.22 21.46,-169.55 63.85,-234.48 42.39,-64.92 98.19,-119.12 167.41,-162.58 69.22,-43.46 144.34,-77.8 225.36,-103.02 81.02,-25.22 160.97,-43.46 239.85,-55.27 78.87,-11.8 148.09,-18.78 208.18,-20.92 -4.29,-92.3 -27.9,-159.37 -70.82,-201.22 -42.93,-41.85 -115.9,-62.78 -218.92,-62.78 -71.9,0 -141.66,9.66 -209.8,29.51 -68.15,19.86 -145.41,50.98 -231.26,92.83l-35.42 -325.16c96.59,-47.22 193.7,-82.63 290.82,-106.24 97.12,-23.61 195.32,-35.42 295.12,-35.42 120.19,0 223.75,21.47 310.67,64.39 86.93,42.93 154,111.61 201.22,206.58 47.21,94.98 70.82,220.53 70.82,376.14l0 434.62c0,80.49 3.76,138.43 11.27,174.39 7.51,35.95 21.46,59.02 41.85,68.68 20.39,9.65 49.9,14.48 88.54,14.48l51.51 0 -35.42 328.38 -144.87 0c-60.1,0 -113.22,-8.04 -159.9,-23.6 -46.68,-15.57 -86.92,-37.03 -120.19,-64.93 -33.27,-27.9 -60.1,-60.63 -80.49,-98.19 -52.58,59.02 -123.41,104.63 -213.01,137.36 -89.61,32.73 -182.97,49.36 -279.56,49.36zm167.41 -305.84c35.42,0 79.42,-9.66 132,-28.44 52.58,-18.78 99.8,-47.75 141.65,-87.46l0 -367.01c-75.12,3.22 -150.24,15.56 -225.36,37.02 -75.11,21.46 -137.89,53.12 -188.33,94.97 -50.44,41.85 -75.66,94.44 -75.66,157.75 0,65.47 17.17,113.76 51.51,145.41 34.34,31.66 89.07,47.76 164.19,47.76z"/>
 </g>
</svg>
