<?xml version="1.0" encoding="UTF-8"?>
<!DOCTYPE svg PUBLIC "-//W3C//DTD SVG 1.1//EN" "http://www.w3.org/Graphics/SVG/1.1/DTD/svg11.dtd">
<!-- Creator: CorelDRAW 2021 (64 Bit) -->
<svg xmlns="http://www.w3.org/2000/svg" xml:space="preserve" width="61.432mm" height="61.432mm" version="1.1" style="shape-rendering:geometricPrecision; text-rendering:geometricPrecision; image-rendering:optimizeQuality; fill-rule:evenodd; clip-rule:evenodd"
viewBox="0 0 6143.2 6143.2"
 xmlns:xlink="http://www.w3.org/1999/xlink"
 xmlns:xodm="http://www.corel.com/coreldraw/odm/2003">
 <defs>
  <style type="text/css">
   <![CDATA[
    .fil0 {fill:#FEFEFE}
   ]]>
  </style>
 </defs>
 <g id="Camada_x0020_1">
  <metadata id="CorelCorpID_0Corel-Layer"/>
  <g id="_2085301857424">
   <path class="fil0" d="M3069.8 220.81c1696.4,0 3071.6,1375.2 3071.6,3071.6 0,954.52 -435.4,1807.36 -1118.44,2370.72 25.86,-172.08 -70.07,-335.68 -261.43,-492.7 526.99,-249.63 363.62,-925.07 -130.5,-1019.45 268.13,-1253.86 -2596.25,-893.18 -1850.05,-2560.14 449.85,-610.49 1276.3,-45.49 932.62,568.96 108.71,-180.62 159.65,-389.74 160.5,-623.52 187.58,421.69 -16.68,839.96 -517.28,987.75 752.05,-39.61 1159.92,-343.63 1024.45,-1065.05 -325.52,-1254.27 -2044.75,-1385.35 -2494.41,-184.2 -308.42,1152.67 604.73,1930.01 915.79,2695.52 338.25,610.53 371.04,920.14 128.93,1208.13 506.35,-582.44 465.75,-1465.45 -274.98,-2103.28 1018.94,446.83 1125.76,1872.05 30.98,2328.47 -29.85,-396.9 -13.88,-1051.31 -79.12,-1211.83 -248.24,-612.44 -676.34,-927.46 -1413.79,-730.8 -554.93,232.04 -780.64,671.75 -625.02,1228.25 182.36,395.72 520.09,581.68 1030.42,326.21 -348.53,-129.47 -570.51,-282.45 -567.36,-477.33 59.92,-533.51 1023.09,-632.02 905.02,149.82 -53.15,411.14 -193.28,999.21 -449.38,1238.05 -892.82,-537.3 -1490.15,-1515.65 -1490.15,-2633.58 0,-1696.4 1375.21,-3071.6 3071.6,-3071.6zm287.02 2303.22c47.53,-32.16 90.62,-64.8 129.54,-97.86 -39.84,34.26 -83,66.9 -129.54,97.86zm902.16 1103.32c73.22,-32.3 175.54,19.98 228.51,116.68 52.97,96.75 36.55,201.31 -36.66,233.59 -73.2,32.33 -175.49,-19.93 -228.49,-116.66 -52.97,-96.76 -36.57,-201.3 36.64,-233.61zm468.73 791.89c89.05,15.05 153.05,127.88 142.94,252.02 -10.2,124.13 -90.57,212.46 -179.7,197.45 -89.04,-14.95 -153.05,-127.8 -142.91,-251.93 10.15,-124.18 90.57,-212.55 179.67,-197.54zm-54.52 989.72c84.13,32.89 123.78,156.42 88.57,275.88 -35.32,119.42 -132.07,189.52 -216.24,156.63 -84.1,-32.85 -123.73,-156.36 -88.52,-275.78 35.3,-119.53 132.07,-189.58 216.19,-156.73zm-175.55 -1251.87c-237.63,77.36 -539.96,-218.7 -511.84,-461.86 55.69,271.49 295.4,466.8 511.84,461.86zm24.96 996.78c-245.97,-73.16 -365.87,-577.88 -222.33,-813.35 -84.02,319.35 30.38,678.35 222.33,813.35zm-277.12 618.07c-137.62,-211.32 43.9,-570.13 271.65,-598.52 -229.5,115.59 -337.73,391.12 -271.65,598.52zm-1557.9 -368.32c52.55,-40.55 100.1,-80.19 142.45,-119.55 -44.3,41.9 -91.74,81.89 -142.45,119.55z"/>
  </g>
 </g>
</svg>
