<?xml version="1.0" encoding="UTF-8"?>
<!DOCTYPE svg PUBLIC "-//W3C//DTD SVG 1.1//EN" "http://www.w3.org/Graphics/SVG/1.1/DTD/svg11.dtd">
<!-- Creator: CorelDRAW 2021 (64 Bit) -->
<svg xmlns="http://www.w3.org/2000/svg" xml:space="preserve" width="120.353mm" height="29.342mm" version="1.1" style="shape-rendering:geometricPrecision; text-rendering:geometricPrecision; image-rendering:optimizeQuality; fill-rule:evenodd; clip-rule:evenodd"
viewBox="0 0 12035.3 2934.2"
 xmlns:xlink="http://www.w3.org/1999/xlink"
 xmlns:xodm="http://www.corel.com/coreldraw/odm/2003">
 <defs>
  <style type="text/css">
   <![CDATA[
    .fil2 {fill:none}
    .fil0 {fill:#373435}
    .fil1 {fill:#FEFEFE}
    .fil3 {fill:#373435;fill-rule:nonzero}
   ]]>
  </style>
    <clipPath id="id0">
     <path d="M1464.96 6.11c810.25,0 1467.09,656.84 1467.09,1467.09 0,810.25 -656.84,1467.09 -1467.09,1467.09 -810.25,0 -1467.09,-656.84 -1467.09,-1467.09 0,-810.25 656.84,-1467.09 1467.09,-1467.09z"/>
    </clipPath>
 </defs>
 <g id="Camada_x0020_1">
  <metadata id="CorelCorpID_0Corel-Layer"/>
  <g id="_2086066004720">
   <path class="fil0" d="M1464.96 6.11c810.25,0 1467.09,656.84 1467.09,1467.09 0,810.25 -656.84,1467.09 -1467.09,1467.09 -810.25,0 -1467.09,-656.84 -1467.09,-1467.09 0,-810.25 656.84,-1467.09 1467.09,-1467.09z"/>
   <g>
   </g>
   <g>
   </g>
   <g style="clip-path:url(#id0)">
    <g id="_2085679089792">
     <path id="_1" class="fil1" d="M2312.41 2755.65c-537.71,574.34 -1075.4,556.45 -1613.14,-15.4 128.91,-107.52 198.88,-398.65 224.98,-600.49 56.39,-373.44 -403.65,-326.39 -432.27,-71.57 -1.5,93.08 104.52,166.15 270.99,227.99 -243.75,122.02 -405.06,33.2 -492.16,-155.81 -74.33,-265.8 33.48,-475.82 298.53,-586.64 352.23,-93.93 556.7,56.52 675.27,349.04 31.16,76.67 23.53,389.24 37.79,578.81 522.9,-218 471.88,-898.73 -14.8,-1112.15 353.8,304.65 373.19,726.4 131.34,1004.59 115.64,-137.55 99.98,-285.43 -61.58,-577.04 -148.57,-365.63 -584.72,-736.91 -437.41,-1287.46 214.77,-573.71 1035.93,-511.1 1191.41,87.98 64.7,344.58 -130.11,489.78 -489.31,508.7 239.1,-70.58 336.66,-270.37 247.07,-471.78 -0.41,111.66 -24.74,211.54 -76.66,297.81 164.15,-293.48 -230.59,-563.34 -445.45,-271.75 -356.41,796.19 1011.71,623.92 883.64,1222.81 236.01,45.07 314.04,367.68 62.33,486.91 145.4,119.31 175.5,246.59 39.43,385.45zm-710.36 -1649.45c22.7,-15.35 43.28,-30.94 61.87,-46.73 -19.03,16.35 -39.64,31.94 -61.87,46.73zm430.9 526.98c34.97,-15.43 83.84,9.54 109.14,55.73 25.3,46.21 17.46,96.15 -17.51,111.57 -34.96,15.44 -83.82,-9.52 -109.13,-55.72 -25.3,-46.22 -17.47,-96.15 17.5,-111.58zm223.88 378.23c42.53,7.19 73.1,61.08 68.27,120.37 -4.87,59.29 -43.26,101.48 -85.83,94.31 -42.53,-7.14 -73.1,-61.04 -68.26,-120.33 4.85,-59.31 43.26,-101.52 85.82,-94.35zm-26.04 472.72c40.18,15.71 59.12,74.71 42.3,131.77 -16.87,57.04 -63.08,90.52 -103.28,74.81 -40.17,-15.69 -59.1,-74.68 -42.28,-131.72 16.86,-57.09 63.08,-90.55 103.26,-74.86zm-83.85 -597.93c-113.5,36.95 -257.9,-104.46 -244.47,-220.6 26.6,129.67 141.09,222.96 244.47,220.6zm11.92 476.1c-117.48,-34.95 -174.75,-276.02 -106.19,-388.49 -40.13,152.53 14.51,324 106.19,388.49zm-132.36 295.2c-65.73,-100.93 20.97,-272.31 129.75,-285.87 -109.62,55.21 -161.31,186.81 -129.75,285.87zm-744.1 -175.92c25.1,-19.37 47.81,-38.3 68.04,-57.1 -21.16,20.01 -43.82,39.11 -68.04,57.1z"/>
    </g>
   </g>
   <path class="fil2" d="M1464.96 6.11c810.25,0 1467.09,656.84 1467.09,1467.09 0,810.25 -656.84,1467.09 -1467.09,1467.09 -810.25,0 -1467.09,-656.84 -1467.09,-1467.09 0,-810.25 656.84,-1467.09 1467.09,-1467.09z"/>
   <path class="fil2" d="M1464.96 6.11c810.25,0 1467.09,656.84 1467.09,1467.09 0,810.25 -656.84,1467.09 -1467.09,1467.09 -810.25,0 -1467.09,-656.84 -1467.09,-1467.09 0,-810.25 656.84,-1467.09 1467.09,-1467.09z"/>
   <path class="fil2" d="M1464.96 6.11c810.25,0 1467.09,656.84 1467.09,1467.09 0,810.25 -656.84,1467.09 -1467.09,1467.09 -810.25,0 -1467.09,-656.84 -1467.09,-1467.09 0,-810.25 656.84,-1467.09 1467.09,-1467.09z"/>
   <g id="_2085679088400">
    <path class="fil3" d="M4911.76 2680.49c-214.63,0 -405.64,-48.83 -573.06,-145.95 -167.41,-97.11 -298.87,-233.4 -394.38,-408.86 -95.51,-175.46 -143.26,-380.97 -143.26,-617.06 0,-236.09 47.75,-442.14 143.26,-617.59 95.51,-175.46 226.97,-311.75 394.38,-408.87 167.42,-97.12 358.43,-145.41 573.06,-145.41 214.63,0 405.65,48.29 573.06,145.41 167.41,97.12 298.87,233.41 394.38,408.87 95.51,175.45 143.26,381.5 143.26,617.59 0,236.09 -47.75,441.6 -143.26,617.06 -95.51,175.46 -226.97,311.75 -394.38,408.86 -167.41,97.12 -358.43,145.95 -573.06,145.95zm0 -399.21c150.24,0 275.8,-33.26 376.68,-99.8 100.87,-66.53 176.53,-158.29 226.97,-274.72 50.43,-116.44 75.65,-248.97 75.65,-398.14 0,-149.17 -25.22,-282.24 -75.65,-398.67 -50.44,-116.44 -126.1,-207.66 -226.97,-274.19 -100.88,-66.54 -226.44,-99.8 -376.68,-99.8 -150.24,0 -275.79,33.26 -376.67,99.8 -100.88,66.53 -176.53,157.75 -226.97,274.19 -50.44,116.43 -75.66,249.5 -75.66,398.67 0,149.17 25.22,281.7 75.66,398.14 50.44,116.43 126.09,208.19 226.97,274.72 100.88,66.54 226.43,99.8 376.67,99.8zm2140.91 386.33c-184.58,0 -339.11,-38.09 -464.13,-113.75 -125.02,-75.66 -219.46,-176.53 -283.31,-302.63 -63.85,-126.09 -96.05,-265.06 -96.05,-417.45 0,-153.46 31.66,-294.04 94.98,-421.21 63.31,-127.16 158.29,-228.58 284.92,-304.77 126.63,-76.19 285.45,-114.29 476.47,-114.29 90.15,0 171.71,9.66 244.68,29.51 72.97,19.86 135.22,44.54 186.73,73.51l-32.2 321.95c-49.36,-25.76 -104.63,-47.22 -166.34,-64.39 -61.7,-17.17 -126.63,-25.76 -194.23,-25.76 -154.54,0 -274.19,46.68 -358.97,140.05 -84.78,93.36 -127.17,215.16 -127.17,365.4 0,142.73 43.46,262.39 130.39,359.5 86.92,97.12 204.43,145.95 352.53,145.95 63.31,0 126.09,-9.66 187.8,-28.44 61.7,-18.78 121.26,-44.53 179.21,-77.8l35.41 338.04c-55.8,28.98 -122.87,52.05 -201.75,69.76 -78.87,17.7 -162.04,26.82 -248.97,26.82zm1242.7 0c-100.87,0 -182.97,-20.92 -246.28,-62.24 -63.32,-41.31 -110,-93.9 -140.05,-158.29 -30.05,-64.39 -45.07,-131.46 -45.07,-201.21l0 -891.78 -228.58 0 35.41 -328.38 193.17 0 0 -354.14 399.21 -41.85 0 395.99 354.14 0 0 328.38 -354.14 0 0 727.59c0,81.56 4.83,140.04 14.49,175.99 9.66,35.95 31.65,58.49 66,67.61 34.34,9.12 89.07,13.95 164.19,13.95l109.46 0 -35.42 328.38 -286.53 0zm579.5 -32.19l0 -2414.57 399.21 0 0 1039.87 -90.15 -70.82c67.61,-47.22 141.12,-90.68 220.53,-130.39 79.42,-39.71 174.39,-59.56 284.92,-59.56 141.66,0 257.02,31.12 346.09,93.9 89.07,62.78 154.53,149.7 196.39,260.77 41.85,111.07 62.78,239.85 62.78,385.8l0 895 -399.21 0 0 -866.03c0,-150.24 -24.15,-261.31 -72.44,-333.21 -48.29,-71.9 -127.17,-107.85 -236.63,-107.85 -93.36,0 -169.56,21.46 -229.11,64.93 -59.56,43.46 -112.15,102.48 -157.22,176.53l74.05 -215.7 0 1281.33 -399.21 0zm2124.83 32.19c-85.86,0 -164.2,-19.31 -235.02,-57.41 -70.83,-38.1 -127.17,-92.83 -169.02,-164.73 -41.86,-71.9 -62.78,-158.82 -62.78,-260.77 0,-91.22 21.46,-169.56 63.85,-234.48 42.39,-64.93 98.19,-119.12 167.41,-162.58 69.22,-43.47 144.34,-77.81 225.36,-103.02 81.02,-25.22 160.97,-43.47 239.85,-55.27 78.87,-11.81 148.09,-18.78 208.19,-20.93 -4.29,-92.29 -27.9,-159.36 -70.83,-201.21 -42.93,-41.86 -115.9,-62.78 -218.92,-62.78 -71.9,0 -141.66,9.66 -209.8,29.51 -68.14,19.85 -145.41,50.97 -231.26,92.83l-35.42 -325.17c96.59,-47.21 193.71,-82.63 290.83,-106.24 97.11,-23.61 195.31,-35.41 295.11,-35.41 120.19,0 223.75,21.46 310.67,64.39 86.93,42.92 154,111.61 201.22,206.58 47.22,94.97 70.83,220.53 70.83,376.13l0 434.63c0,80.48 3.75,138.43 11.26,174.38 7.52,35.95 21.47,59.03 41.86,68.69 20.39,9.65 49.9,14.48 88.53,14.48l51.51 0 -35.41 328.38 -144.88 0c-60.09,0 -113.21,-8.04 -159.89,-23.6 -46.69,-15.57 -86.93,-37.03 -120.2,-64.93 -33.26,-27.9 -60.09,-60.63 -80.48,-98.19 -52.59,59.02 -123.41,104.63 -213.02,137.36 -89.61,32.73 -182.97,49.36 -279.55,49.36zm167.41 -305.84c35.41,0 79.41,-9.66 131.99,-28.44 52.59,-18.78 99.8,-47.75 141.66,-87.46l0 -367.02c-75.12,3.22 -150.24,15.56 -225.36,37.03 -75.12,21.46 -137.9,53.12 -188.34,94.97 -50.44,41.85 -75.66,94.44 -75.66,157.75 0,65.46 17.17,113.76 51.51,145.41 34.35,31.66 89.08,47.76 164.2,47.76z"/>
   </g>
  </g>
 </g>
</svg>
