<?xml version="1.0" encoding="UTF-8"?>
<!DOCTYPE svg PUBLIC "-//W3C//DTD SVG 1.1//EN" "http://www.w3.org/Graphics/SVG/1.1/DTD/svg11.dtd">
<!-- Creator: CorelDRAW 2021 (64 Bit) -->
<svg xmlns="http://www.w3.org/2000/svg" xml:space="preserve" width="61.432mm" height="61.432mm" version="1.1" style="shape-rendering:geometricPrecision; text-rendering:geometricPrecision; image-rendering:optimizeQuality; fill-rule:evenodd; clip-rule:evenodd"
viewBox="0 0 6143.2 6143.2"
 xmlns:xlink="http://www.w3.org/1999/xlink"
 xmlns:xodm="http://www.corel.com/coreldraw/odm/2003">
 <defs>
  <style type="text/css">
   <![CDATA[
    .fil2 {fill:none}
    .fil0 {fill:#373435}
    .fil1 {fill:#FEFEFE}
   ]]>
  </style>
    <clipPath id="id0">
     <path d="M3069.8 1.81c1696.39,0 3071.59,1375.2 3071.59,3071.6 0,1696.39 -1375.2,3071.59 -3071.59,3071.59 -1696.39,0 -3071.59,-1375.2 -3071.59,-3071.59 0,-1696.4 1375.2,-3071.6 3071.59,-3071.6z"/>
    </clipPath>
 </defs>
 <g id="Camada_x0020_1">
  <metadata id="CorelCorpID_0Corel-Layer"/>
  <g id="_2085675712768">
   <path class="fil0" d="M3069.8 1.81c1696.39,0 3071.59,1375.2 3071.59,3071.6 0,1696.39 -1375.2,3071.59 -3071.59,3071.59 -1696.39,0 -3071.59,-1375.2 -3071.59,-3071.59 0,-1696.4 1375.2,-3071.6 3071.59,-3071.6z"/>
   <g>
   </g>
   <g style="clip-path:url(#id0)">
    <g id="_2085679452560">
     <path id="_1" class="fil1" d="M4844.09 5758.41c-1125.8,1202.49 -2251.54,1165.04 -3377.39,-32.24 269.9,-225.1 416.39,-834.64 471.05,-1257.23 118.05,-781.84 -845.12,-683.34 -905.04,-149.83 -3.13,194.87 218.83,347.85 567.36,477.33 -510.34,255.48 -848.06,69.52 -1030.42,-326.21 -155.61,-556.49 70.11,-996.21 625.02,-1228.24 737.46,-196.65 1165.56,118.34 1413.81,730.78 65.23,160.52 49.25,814.95 79.1,1211.84 1094.78,-456.42 987.95,-1881.65 -30.98,-2328.46 740.73,637.81 781.33,1520.83 274.99,2103.26 242.09,-287.98 209.32,-597.59 -128.93,-1208.14 -311.05,-765.48 -1224.22,-1542.83 -915.79,-2695.48 449.66,-1201.18 2168.88,-1070.09 2494.39,184.19 135.48,721.43 -272.39,1025.44 -1024.43,1065.04 500.59,-147.77 704.84,-566.05 517.27,-987.75 -0.86,233.8 -51.79,442.91 -160.49,623.53 343.67,-614.46 -482.8,-1179.46 -932.63,-568.97 -746.2,1666.97 2118.19,1306.3 1850.05,2560.15 494.13,94.37 657.48,769.8 130.48,1019.44 304.44,249.8 367.46,516.28 82.58,806.99zm-1487.26 -3453.39c47.51,-32.14 90.61,-64.78 129.53,-97.84 -39.84,34.24 -82.99,66.88 -129.53,97.84zm902.15 1103.32c73.22,-32.3 175.53,19.97 228.51,116.69 52.95,96.73 36.55,201.3 -36.66,233.58 -73.19,32.32 -175.5,-19.92 -228.48,-116.66 -52.99,-96.77 -36.59,-201.31 36.63,-233.61zm468.74 791.88c89.03,15.06 153.03,127.88 142.94,252.03 -10.2,124.12 -90.59,212.45 -179.71,197.45 -89.04,-14.96 -153.06,-127.81 -142.91,-251.93 10.14,-124.17 90.56,-212.55 179.68,-197.55zm-54.53 989.72c84.12,32.9 123.78,156.42 88.56,275.89 -35.32,119.42 -132.06,189.51 -216.23,156.63 -84.1,-32.85 -123.73,-156.36 -88.52,-275.78 35.3,-119.53 132.06,-189.59 216.19,-156.74zm-175.56 -1251.86c-237.62,77.36 -539.95,-218.71 -511.83,-461.86 55.68,271.48 295.39,466.8 511.83,461.86zm24.97 996.78c-245.96,-73.16 -365.88,-577.88 -222.33,-813.35 -84.02,319.34 30.38,678.35 222.33,813.35zm-277.13 618.07c-137.6,-211.33 43.92,-570.13 271.66,-598.51 -229.5,115.58 -337.73,391.1 -271.66,598.51zm-1557.89 -368.32c52.56,-40.55 100.1,-80.19 142.47,-119.55 -44.31,41.89 -91.75,81.89 -142.47,119.55z"/>
    </g>
   </g>
   <path class="fil2" d="M3069.8 1.81c1696.39,0 3071.59,1375.2 3071.59,3071.6 0,1696.39 -1375.2,3071.59 -3071.59,3071.59 -1696.39,0 -3071.59,-1375.2 -3071.59,-3071.59 0,-1696.4 1375.2,-3071.6 3071.59,-3071.6z"/>
   <path class="fil2" d="M3069.8 1.81c1696.39,0 3071.59,1375.2 3071.59,3071.6 0,1696.39 -1375.2,3071.59 -3071.59,3071.59 -1696.39,0 -3071.59,-1375.2 -3071.59,-3071.59 0,-1696.4 1375.2,-3071.6 3071.59,-3071.6z"/>
  </g>
 </g>
</svg>
