<?xml version="1.0" encoding="UTF-8"?>
<!DOCTYPE svg PUBLIC "-//W3C//DTD SVG 1.1//EN" "http://www.w3.org/Graphics/SVG/1.1/DTD/svg11.dtd">
<!-- Creator: CorelDRAW 2021 (64 Bit) -->
<svg xmlns="http://www.w3.org/2000/svg" xml:space="preserve" width="61.432mm" height="61.432mm" version="1.1" style="shape-rendering:geometricPrecision; text-rendering:geometricPrecision; image-rendering:optimizeQuality; fill-rule:evenodd; clip-rule:evenodd"
viewBox="0 0 6143.2 6143.2"
 xmlns:xlink="http://www.w3.org/1999/xlink"
 xmlns:xodm="http://www.corel.com/coreldraw/odm/2003">
 <defs>
  <style type="text/css">
   <![CDATA[
    .fil2 {fill:none}
    .fil0 {fill:#C21B6B}
    .fil1 {fill:#FEFEFE}
   ]]>
  </style>
    <clipPath id="id0">
     <path d="M3069.81 1.8c1696.38,0 3071.58,1375.2 3071.58,3071.6 0,1696.39 -1375.2,3071.59 -3071.58,3071.59 -1696.4,0 -3071.6,-1375.2 -3071.6,-3071.59 0,-1696.4 1375.2,-3071.6 3071.6,-3071.6z"/>
    </clipPath>
 </defs>
 <g id="Camada_x0020_1">
  <metadata id="CorelCorpID_0Corel-Layer"/>
  <g id="_2085682777728">
   <path class="fil0" d="M3069.81 1.8c1696.38,0 3071.58,1375.2 3071.58,3071.6 0,1696.39 -1375.2,3071.59 -3071.58,3071.59 -1696.4,0 -3071.6,-1375.2 -3071.6,-3071.59 0,-1696.4 1375.2,-3071.6 3071.6,-3071.6z"/>
   <g>
   </g>
   <g style="clip-path:url(#id0)">
    <g id="_2085682784112">
     <path id="_1" class="fil1" d="M4844.09 5758.4c-1125.8,1202.49 -2251.53,1165.04 -3377.39,-32.24 269.9,-225.1 416.39,-834.64 471.05,-1257.23 118.05,-781.84 -845.12,-683.34 -905.04,-149.83 -3.13,194.87 218.84,347.85 567.37,477.33 -510.34,255.48 -848.07,69.52 -1030.43,-326.21 -155.61,-556.49 70.12,-996.21 625.03,-1228.24 737.45,-196.65 1165.56,118.34 1413.8,730.78 65.23,160.52 49.25,814.95 79.11,1211.84 1094.77,-456.42 987.94,-1881.65 -30.99,-2328.46 740.73,637.81 781.33,1520.83 275,2103.26 242.08,-287.98 209.31,-597.59 -128.93,-1208.14 -311.06,-765.48 -1224.22,-1542.83 -915.8,-2695.48 449.66,-1201.18 2168.89,-1070.09 2494.4,184.19 135.47,721.43 -272.4,1025.44 -1024.44,1065.04 500.59,-147.77 704.84,-566.05 517.28,-987.75 -0.87,233.8 -51.8,442.91 -160.5,623.53 343.67,-614.46 -482.79,-1179.46 -932.62,-568.97 -746.21,1666.97 2118.18,1306.3 1850.05,2560.15 494.12,94.37 657.48,769.8 130.48,1019.44 304.43,249.8 367.45,516.28 82.57,806.99zm-1487.26 -3453.39c47.52,-32.14 90.62,-64.78 129.54,-97.84 -39.84,34.24 -83,66.88 -129.54,97.84zm902.15 1103.32c73.22,-32.3 175.53,19.97 228.51,116.69 52.96,96.73 36.56,201.3 -36.66,233.58 -73.19,32.32 -175.5,-19.92 -228.48,-116.66 -52.98,-96.77 -36.58,-201.31 36.63,-233.61zm468.74 791.88c89.04,15.06 153.03,127.88 142.94,252.03 -10.2,124.12 -90.59,212.45 -179.71,197.45 -89.03,-14.96 -153.05,-127.81 -142.91,-251.93 10.15,-124.17 90.56,-212.55 179.68,-197.55zm-54.53 989.72c84.12,32.9 123.78,156.42 88.56,275.89 -35.32,119.42 -132.06,189.51 -216.23,156.63 -84.1,-32.85 -123.73,-156.36 -88.51,-275.78 35.29,-119.53 132.06,-189.59 216.18,-156.74zm-175.55 -1251.86c-237.63,77.36 -539.96,-218.71 -511.84,-461.86 55.69,271.48 295.39,466.8 511.84,461.86zm24.96 996.78c-245.96,-73.16 -365.87,-577.88 -222.33,-813.35 -84.02,319.34 30.38,678.35 222.33,813.35zm-277.12 618.07c-137.61,-211.33 43.91,-570.13 271.66,-598.51 -229.51,115.58 -337.73,391.1 -271.66,598.51zm-1557.89 -368.32c52.56,-40.55 100.1,-80.19 142.46,-119.55 -44.31,41.89 -91.74,81.89 -142.46,119.55z"/>
    </g>
   </g>
   <path class="fil2" d="M3069.81 1.8c1696.38,0 3071.58,1375.2 3071.58,3071.6 0,1696.39 -1375.2,3071.59 -3071.58,3071.59 -1696.4,0 -3071.6,-1375.2 -3071.6,-3071.59 0,-1696.4 1375.2,-3071.6 3071.6,-3071.6z"/>
   <path class="fil2" d="M3069.81 1.8c1696.38,0 3071.58,1375.2 3071.58,3071.6 0,1696.39 -1375.2,3071.59 -3071.58,3071.59 -1696.4,0 -3071.6,-1375.2 -3071.6,-3071.59 0,-1696.4 1375.2,-3071.6 3071.6,-3071.6z"/>
  </g>
 </g>
</svg>
