<svg width="245" height="245" xmlns="http://www.w3.org/2000/svg"><g fill="none" fill-rule="nonzero"><circle cx="122.5" cy="122.5" r="122.5"/><path fill="#fff" d="M34.133 136.504l1.67-1.863-9.989-8.694L17 135.769l1.894 1.649 5.61-6.251c1.916 20.525 10.315 39.805 23.644 55.144l2.352-2.023c-12.866-14.858-20.965-33.518-22.793-53.377l6.426 5.593zm36.955 56.655a2.537 2.537 0 00-3.523.566 2.518 2.518 0 00.569 3.512 2.537 2.537 0 003.523-.567 2.516 2.516 0 00-.569-3.51zm14.634 18.755c-1.723 3.639-4.82 3.991-7.18 2.881-2.358-1.108-4.054-3.713-2.332-7.354 1.454-3.07 4.232-4.22 7.161-2.843 2.93 1.376 3.804 4.245 2.35 7.316zm-.772-10.653c-4.83-2.272-10.247-.46-12.562 4.43-2.333 4.93-.256 10.17 4.576 12.442 4.832 2.271 10.21.536 12.544-4.393 2.316-4.891.274-10.208-4.558-12.479zm7.756 22.318l3.964 1.128 4.86-16.97-3.964-1.127-4.86 16.969zm.701 5.038c-1.456-.414-2.86.364-3.275 1.815-.415 1.45.365 2.85 1.82 3.264 1.457.415 2.86-.363 3.276-1.814.415-1.452-.365-2.85-1.82-3.265zm17.365-19.713c-2.716-.304-4.43.265-5.504.778l-.51 4.54c1.6-1.425 3.639-1.872 5.31-1.686 1.505.168 2.741.854 3.562 1.832.706.88 1.346 2.342 1.116 4.383-.22 1.959-1.12 3.208-1.958 3.874-.836.666-2.137 1.322-4.06 1.108-1.255-.139-3.056-.678-4.732-2.72l-.514 4.582c1.765 1.252 3.33 1.636 4.667 1.786 3.47.386 5.821-.574 7.355-1.796 1.44-1.148 3.068-3.2 3.437-6.492.36-3.208-.66-5.43-1.77-6.862-1.475-1.935-3.472-3.002-6.399-3.327zm18.985 27.62l3.985 1.476 4.251-7.078-2.422-1.154-5.814 6.756zm4.665-12.573c-2.59.303-5.413-1.014-5.882-5.01-.396-3.373 1.351-5.815 4.568-6.189 3.217-.374 5.481 1.598 5.877 4.97.469 3.998-1.972 5.927-4.563 6.23zm-1.745-14.863c-5.305.619-8.94 5.01-8.31 10.38.636 5.413 5.18 8.766 10.485 8.147 5.306-.618 8.95-4.925 8.315-10.338-.63-5.37-5.184-8.808-10.49-8.189zm29.654 6.324c-.545 1.154-1.42 1.805-2.478 2.214-1.098.423-2.248.597-3.554.022-1.345-.56-2.465-1.701-3.178-3.539-.487-1.251-.719-2.78-.052-4.43.562-1.34 1.484-2.1 2.701-2.57a4.838 4.838 0 013.366-.039c1.37.505 2.62 1.865 3.257 3.508.684 1.759.57 3.556-.062 4.834zm-.99-11.844c-2.207-1.037-4.2-.942-6.318-.126-1.099.424-3.21 1.374-4.11 4.282l-.835-2.15c-.471-1.212-1.14-2.931-.354-4.628.288-.65.986-1.639 2.595-2.259 1.57-.605 2.753-.342 3.421-.016.831.4 1.713 1.273 2.218 2.111l3.727-1.437c-1.049-1.888-2.734-3.44-4.42-4.184-2.177-.957-4.281-.685-6.204.055-2.706 1.044-4.083 2.61-4.808 3.878-1.532 2.793-.886 5.734.617 9.605l5.875 15.129 3.844-1.483-.698-1.798c2.064 1.137 4.12.973 5.768.337 2.001-.771 3.735-2.114 4.73-4.431.793-1.788 1.127-4.299-.042-7.31-1.063-2.736-2.91-4.585-5.007-5.575zm21.654.291c-.136.759-.558 1.769-1.732 2.583-1.103.768-2.117.859-2.854.758-.854-.122-1.715-.547-2.406-1.24l6.729-4.677c.332.843.433 1.794.263 2.576zm-4.148-11.426c-2.343-.417-4.267.205-6.198 1.548-1.554 1.078-2.866 2.502-3.51 4.073-.523 1.231-.746 2.818-.598 4.35l3.936-.384c-.074-.767-.034-1.662.24-2.517.33-.995.875-1.68 1.806-2.329.829-.575 1.891-1.108 3.238-.869 1.23.219 2.496 1.076 3.287 2.06l-10.42 7.24.288.412c1.059 1.513 3.108 4.076 6.318 4.707 1.489.294 3.67.262 5.981-1.344 2.07-1.44 3.13-3.299 3.495-5.342.435-2.6-.287-5.32-1.85-7.554-1.516-2.167-3.67-3.634-6.013-4.051zm11.772-14.07l6.32 5.659c4.256 3.81 3.178 5.381 1.941 6.754-1.04 1.154-2.258 2.316-5.606-.682l-7.321-6.555-2.756 3.056 8.073 7.228c2.034 1.82 3.221 2.321 4.391 2.467.929.099 3.077.162 5.27-2.27.674-.748 1.93-2.328 1.64-4.955l1.22 1.093 2.756-3.056-13.173-11.794-2.755 3.055zm27.42-18.331c-.96 2.416-3.462 4.268-7.216 2.785-3.167-1.251-4.495-3.94-3.302-6.94 1.194-3.002 4.01-4.052 7.178-2.8 3.754 1.481 4.301 4.538 3.34 6.955zm-1.752-10.837c-5.043-1.993-10.238.374-12.207 5.322-1.968 4.949.188 10.22 5.233 12.213 5.082 2.008 10.2-.39 12.167-5.338 1.97-4.95-.11-10.19-5.193-12.197zm8.255-14.431c-.333 2.578-2.473 4.714-6.312 4.222-3.671-.468-5.245-3.079-4.912-5.657.38-2.952 3.172-4.539 6.217-4.15 3.129.4 5.386 2.633 5.007 5.585zm.563 4.847c2.383-1.385 3.006-3.588 3.172-4.876.594-4.615-2.407-8.973-8.124-9.702-4.84-.62-9.742 1.882-10.438 7.287-.16 1.247-.15 3.489 1.705 5.543l-1.836-.235-.525 4.075 30.416 3.888.525-4.075-14.895-1.905zm-2.734-41.83c.614 2.525-.62 5.282-4.38 6.19-3.598.87-6.002-1.007-6.616-3.534-.704-2.892 1.334-5.37 4.318-6.09 3.066-.74 5.974.541 6.678 3.434zm-7.588-7.528c-4.741 1.146-8.423 5.227-7.135 10.524.298 1.222 1.109 3.311 3.58 4.57l-1.8.434.971 3.993 17.211-4.158-.971-3.993-2.003.484c1.73-2.143 1.521-4.422 1.214-5.685-1.1-4.522-5.466-7.521-11.067-6.169zm-4.86-28.436l-2.084-3.544-15.277 8.925 2.084 3.544 7.875-4.6c1.305-.763 2.655-1.454 3.887-1.348.93.089 1.848.573 2.359 1.44.745 1.265.301 2.254-.151 2.81-.242.335-.826.919-2.531 1.915l-8.419 4.918 2.085 3.544 7.874-4.6c1.307-.762 2.656-1.454 3.888-1.347.93.088 1.849.572 2.36 1.44.744 1.266.301 2.253-.153 2.809-.241.335-.824.919-2.53 1.915l-8.418 4.918 2.084 3.544 9.435-5.512c2.214-1.292 3.04-2.455 3.38-3.042 1.012-1.759.927-3.894-.159-5.738-.787-1.338-2.35-3.001-4.908-3.207.977-1.736.867-3.664-.07-5.255-.68-1.158-1.872-2.357-4.025-2.702l1.415-.827zM188.54 63.65l22.454-20.815-2.808-3.007-22.453 20.814 2.807 3.008zm-12.102-22.177c1.89-2.517 4.95-3.377 7.342-1.595 2.09 1.555 2.902 4.463.584 7.551-2.215 2.956-5.269 3.036-7.358 1.48-2.392-1.782-2.406-4.985-.568-7.436zm-2.086 10.064c1.01.753 2.973 1.848 5.68 1.249l-1.108 1.477 3.302 2.46 10.602-14.136-3.301-2.458-1.235 1.644c-.038-2.75-1.655-4.373-2.7-5.152-3.74-2.785-9.022-2.324-12.472 2.276-2.921 3.893-3.148 9.378 1.232 12.64zm-30.217-23.871c.866-3.023 3.42-4.913 6.291-4.095 2.508.713 4.306 3.143 3.243 6.85-1.016 3.548-3.84 4.706-6.349 3.993-2.872-.817-4.028-3.806-3.185-6.748zm1.644 10.145c1.213.345 3.437.673 5.755-.847l-.51 1.772 3.965 1.128 4.86-16.97-3.964-1.127-.566 1.976c-1.017-2.557-3.11-3.5-4.363-3.858-4.489-1.277-9.261 1.028-10.843 6.55-1.339 4.676.408 9.88 5.666 11.376zm-33.438-16.68c.505-.582 1.385-1.235 2.81-1.34 1.343-.099 2.261.338 2.844.8.672.539 1.196 1.341 1.434 2.29l-8.179.601c.144-.893.544-1.764 1.09-2.35zm6.61 8.973c-.793.689-1.613 1.001-2.746 1.084-1.007.074-2.194-.007-3.23-.897-.945-.814-1.596-2.195-1.772-3.444l12.669-.929-.038-.502c-.135-1.84-.587-5.085-3.025-7.26-1.128-1.01-3.022-2.09-5.832-1.883-2.517.185-4.379 1.246-5.739 2.817-1.707 2.017-2.477 4.721-2.276 7.44.194 2.632 1.296 4.99 3.098 6.538 1.8 1.55 3.775 1.993 6.123 1.82 1.888-.138 3.745-.695 5.103-1.719 1.08-.794 2.085-2.044 2.741-3.437l-3.582-1.67c-.328.696-.821 1.446-1.494 2.042zm.745-22.457L115.777 6l-4.552 6.892 2.37 1.254 6.1-6.5zM79.77 28.989c2.374-1.074 5.323-.38 6.921 3.131 1.53 3.359.128 6.064-2.246 7.137-2.72 1.231-5.543-.301-6.81-3.088-1.305-2.863-.585-5.95 2.135-7.18zm5.706 13.853c1.149-.519 3.058-1.704 3.836-4.357l.764 1.68 3.754-1.698-7.316-16.07-3.754 1.696.851 1.87c-2.435-1.292-4.643-.662-5.83-.126-4.253 1.923-6.393 6.758-4.012 11.987 2.016 4.429 6.727 7.27 11.707 5.018zm-26.38-1.32c1.224-.957 2.625-1.895 5.407 1.63l6.083 7.713 3.24-2.54-6.706-8.502c-1.69-2.142-2.775-2.838-3.901-3.182-.899-.256-3.004-.687-5.583 1.334-.794.622-2.303 1.964-2.47 4.6l-1.014-1.284-3.24 2.538 10.944 13.875 3.24-2.539-5.251-6.657c-3.535-4.482-2.203-5.845-.749-6.985zm-16.61 11.243l13.121 11.852 2.77-3.044-13.123-11.852-2.769 3.044zm-2.076-4.647c1.017-1.118.939-2.717-.184-3.73-1.122-1.014-2.726-.935-3.743.184-1.017 1.118-.938 2.716.184 3.73 1.122 1.014 2.726.934 3.743-.184zm2.032 10.434l-3.07-2.209-1.845 2.55-5.253-3.778-2.413 3.33 5.252 3.779-1.008 1.393 3.07 2.209 1.008-1.395 11.29 8.122 2.413-3.332-11.29-8.12 1.846-2.55zM29.53 78.422c1.11-2.351 3.724-4.044 7.377-2.33 3.083 1.447 4.24 4.214 2.86 7.134-1.38 2.92-4.257 3.794-7.34 2.348-3.653-1.714-4.009-4.8-2.897-7.152zm1.067 10.926c4.909 2.304 10.243.266 12.518-4.55 2.276-4.817.455-10.212-4.454-12.516-4.947-2.321-10.204-.247-12.48 4.568-2.276 4.818-.531 10.176 4.416 12.498zm6.164 11.666l-8.895-2.22c-1.142-.286-2.774-.694-3.681-2.087-.622-.976-.529-1.86-.315-2.715.103-.406.328-1.129 1.124-1.88l-3.223-2.533c-.93.935-1.358 1.95-1.603 2.927-.225.894-.297 1.698-.042 2.582.183.65.59 1.444 1.008 2.024l-1.55-.387-1.003 3.984 17.178 4.29 1.002-3.985z"/></g></svg>