<svg width="1693" height="267" viewBox="0 0 1693 267" fill="none" xmlns="http://www.w3.org/2000/svg">
<path d="M114.473 183.457L169.564 225.273C172.488 227.493 173.059 231.659 170.843 234.579L157.785 251.782C155.569 254.701 151.403 255.272 148.478 253.052L93.3872 211.237C90.4627 209.017 89.8918 204.85 92.1078 201.931L105.165 184.728C107.381 181.808 111.548 181.237 114.473 183.457Z" stroke="#3B85DB" stroke-width="4"/>
<path d="M265.413 100.138L268.803 136.14C269.449 142.993 264.416 149.072 257.562 149.718L221.561 153.108C214.708 153.754 208.628 148.721 207.983 141.867L204.593 105.866C203.947 99.0125 208.98 92.9334 215.833 92.288L251.835 88.8976C258.688 88.2522 264.767 93.2849 265.413 100.138Z" stroke="#F9A619" stroke-width="4"/>
<path d="M410 204.49C410 223.757 394.381 239.376 375.114 239.376C355.846 239.376 340.227 223.757 340.227 204.49C340.227 185.223 355.846 169.604 375.114 169.604C394.381 169.604 410 185.223 410 204.49Z" stroke="#EB3669" stroke-width="4"/>
<path d="M99.853 85.9265C99.853 92.5133 94.5133 97.853 87.9265 97.853C81.3397 97.853 76 92.5133 76 85.9265C76 79.3397 81.3397 74 87.9265 74C94.5133 74 99.853 79.3397 99.853 85.9265Z" stroke="#28192D" stroke-width="4"/>
<path d="M1528.27 67.6651L1591.71 15.7802C1595.24 12.8967 1600.43 13.4163 1603.31 16.9363L1619.51 36.7455C1622.39 40.2656 1621.87 45.457 1618.34 48.3405L1554.9 100.225C1551.38 103.109 1546.19 102.589 1543.31 99.0692L1527.11 79.26C1524.23 75.74 1524.75 70.5485 1528.27 67.6651Z" stroke="#F9A619" stroke-width="4"/>
<path d="M1435.71 115.555L1420.56 141.794C1417.76 146.634 1411.58 148.292 1406.73 145.498L1380.5 130.349C1375.66 127.554 1374 121.365 1376.79 116.525L1391.94 90.2861C1394.74 85.4461 1400.92 83.7878 1405.76 86.5822L1432 101.731C1436.84 104.526 1438.5 110.715 1435.71 115.555Z" stroke="#EB3669" stroke-width="4"/>
<path d="M1608.28 151.102L1602.51 161.098C1601.79 162.35 1600.19 162.779 1598.93 162.056L1588.94 156.285C1587.69 155.562 1587.26 153.962 1587.98 152.71L1593.75 142.714C1594.47 141.462 1596.08 141.033 1597.33 141.756L1607.32 147.527C1608.57 148.25 1609 149.85 1608.28 151.102Z" stroke="#28192D" stroke-width="4"/>
<path d="M1490.8 28.6177C1490.8 40.0046 1481.57 49.2355 1470.19 49.2355C1458.8 49.2355 1449.57 40.0046 1449.57 28.6177C1449.57 17.2309 1458.8 8 1470.19 8C1481.57 8 1490.8 17.2309 1490.8 28.6177Z" stroke="#3B85DB" stroke-width="4"/>
</svg>
